<svg width="26" height="26" viewBox="0 0 26 26" fill="none" xmlns="http://www.w3.org/2000/svg">
<path d="M18.8063 24.5025C18.4979 24.5027 18.1941 24.4274 17.9215 24.2831L12.8572 21.6214C12.8179 21.6004 12.7741 21.5894 12.7296 21.5894C12.6851 21.5894 12.6413 21.6004 12.6021 21.6214L7.53857 24.2831C7.22479 24.4483 6.87106 24.5223 6.5174 24.4968C6.16374 24.4713 5.82428 24.3473 5.53741 24.1389C5.25055 23.9305 5.02774 23.646 4.8942 23.3175C4.76065 22.9891 4.7217 22.6298 4.78176 22.2803L5.74863 16.6424C5.75606 16.5982 5.75254 16.5529 5.73837 16.5104C5.72421 16.4679 5.69983 16.4295 5.66738 16.3986L1.57401 12.4036C1.31986 12.156 1.14014 11.8421 1.05522 11.4976C0.970288 11.1531 0.983548 10.7917 1.09349 10.4543C1.20344 10.117 1.40567 9.81714 1.67728 9.58883C1.94889 9.36051 2.27902 9.21283 2.63026 9.16251L8.2877 8.34108C8.33172 8.33467 8.37352 8.31764 8.40947 8.29145C8.44543 8.26526 8.47447 8.2307 8.49407 8.19076L11.0234 3.05983C11.18 2.74175 11.4226 2.47389 11.7237 2.28658C12.0247 2.09927 12.3722 2 12.7268 2C13.0814 2 13.4288 2.09927 13.7299 2.28658C14.0309 2.47389 14.2735 2.74175 14.4302 3.05983L16.9611 8.18914C16.9809 8.22895 17.01 8.2634 17.0459 8.28957C17.0818 8.31573 17.1236 8.33285 17.1675 8.33945L22.8298 9.1617C23.1809 9.2123 23.5108 9.36014 23.7822 9.58849C24.0536 9.81685 24.2557 10.1166 24.3656 10.4538C24.4755 10.7911 24.4888 11.1523 24.4041 11.4968C24.3194 11.8412 24.1399 12.155 23.8861 12.4028L19.7886 16.3954C19.7563 16.4264 19.732 16.4647 19.7178 16.5072C19.7037 16.5497 19.7001 16.595 19.7074 16.6391L20.6743 22.2771C20.7208 22.5495 20.7074 22.8288 20.635 23.0955C20.5626 23.3622 20.4329 23.6099 20.2551 23.8214C20.0772 24.0329 19.8554 24.2031 19.605 24.3202C19.3547 24.4373 19.0819 24.4984 18.8055 24.4993L18.8063 24.5025Z" fill="url(#paint0_linear_2_36)"/>
<defs>
<linearGradient id="paint0_linear_2_36" x1="12.7296" y1="2" x2="12.7296" y2="24.5025" gradientUnits="userSpaceOnUse">
<stop stop-color="#FFD25E"/>
<stop offset="1" stop-color="#E3A810"/>
</linearGradient>
</defs>
</svg>
