<svg width="80" height="80" viewBox="0 0 80 80" fill="none" xmlns="http://www.w3.org/2000/svg">
<g clip-path="url(#clip0_5_1887)">
<path d="M46.7085 52.2831C42.5413 50.4991 36.8576 52.3886 32.1144 54.9528C32.1676 54.1925 32.1298 53.4906 31.969 52.8966L36.3075 49.7778C36.8335 49.3995 36.9533 48.6666 36.5753 48.1406C36.1971 47.6146 35.4643 47.4948 34.9381 47.8728L30.9346 50.7509L30.444 45.8448C30.3794 45.2001 29.8053 44.7286 29.16 44.7943C28.5154 44.8588 28.0451 45.4337 28.1095 46.0783L28.6407 51.3889C28.1183 51.6459 27.571 52.064 27.0004 52.643C26.5417 50.6751 25.8841 48.4203 24.9661 46.3711C24.7012 45.7799 24.007 45.5149 23.4159 45.7802C22.8247 46.045 22.5602 46.7392 22.825 47.3304C23.9765 49.9007 24.6938 52.8615 25.11 55.0388C23.8914 56.9004 22.8427 59.0509 22.068 61.3127C18.2405 63.5338 11.7832 66.4413 7.93704 64.5794C4.90048 63.1093 3.28538 59.3779 4.74016 56.3261C5.6109 54.3969 7.38444 53.0575 9.48457 52.7436C9.87889 52.6847 10.2163 52.4292 10.3803 52.0659C10.5443 51.7024 10.5125 51.2805 10.2957 50.9458C9.14156 49.1634 8.99829 46.9591 9.84463 45.015C11.5681 41.0566 17.0162 40.2326 20.0533 43.1649C20.5305 43.6031 21.2726 43.5712 21.7106 43.0938C22.1487 42.6165 22.117 41.8745 21.6396 41.4365C17.4995 37.4308 10.0367 38.6757 7.70493 44.0533C6.7588 46.2354 6.69999 48.6505 7.58465 50.8043C5.38442 51.5662 3.58022 53.1933 2.60202 55.361C0.633119 59.4946 2.68336 64.7264 6.83607 66.6512C11.5062 68.8158 16.633 66.7124 21.2262 64.4536C20.8042 66.7665 20.9528 68.8569 22.4578 69.5361C24.1062 70.2568 25.7307 68.7839 27.0858 67.1059C28.3786 72.3067 30.8014 77.6249 34.9564 79.341C39.1908 81.0898 44.4252 79.2572 46.2236 75.046C47.2018 72.8781 47.2283 70.4487 46.3439 68.2949C48.5442 67.5332 50.348 65.9064 51.3251 63.741C53.3848 59.4904 51.0374 54.1363 46.7085 52.2831ZM23.453 67.3297C22.7693 64.0265 26.5914 55.3005 29.706 53.4731C30.3999 57.0113 26.3781 65.6646 23.453 67.3297ZM49.1878 62.7729C48.3172 64.7022 46.5437 66.0414 44.4435 66.3553C44.0492 66.4143 43.7117 66.6695 43.5478 67.033C43.3837 67.3964 43.4156 67.8184 43.6322 68.1531C44.7862 69.9355 44.9555 72.1514 44.0849 74.0809C42.7588 77.1913 38.8927 78.4487 35.7812 77.1444C31.8432 75.4936 29.7518 68.739 28.8836 64.3986C30.0271 62.356 30.8788 60.3916 31.5621 57.9615C35.3626 55.711 41.758 52.7932 45.7181 54.4103C48.9363 55.7245 50.7191 59.603 49.1878 62.7729Z" fill="#A884FC"/>
<path d="M76.4548 53.8274L71.1684 50.9362L68.2772 45.6499C68.0715 45.2738 67.6768 45.0398 67.248 45.0398C66.8191 45.0398 66.4246 45.2738 66.2188 45.6499L63.3277 50.9362L58.0413 53.8274C57.6651 54.0331 57.4312 54.4279 57.4312 54.8566C57.4312 55.2853 57.6651 55.68 58.0413 55.8858L63.3277 58.7769L66.2188 64.0631C66.4245 64.4393 66.8191 64.6733 67.248 64.6733C67.6768 64.6733 68.0713 64.4393 68.2772 64.0631L71.1684 58.7769L76.4548 55.8858C76.831 55.6801 77.0649 55.2853 77.0649 54.8566C77.0649 54.4279 76.831 54.0333 76.4548 53.8274ZM69.7413 56.8836C69.5444 56.9912 69.3827 57.153 69.2751 57.3498L67.2481 61.0558L65.2212 57.3498C65.1136 57.1529 64.9517 56.9912 64.7549 56.8836L61.0489 54.8568L64.7549 52.8298C64.9519 52.7222 65.1136 52.5603 65.2212 52.3636L67.2481 48.6576L69.2751 52.3636C69.3827 52.5605 69.5445 52.7222 69.7413 52.8298L73.4473 54.8568L69.7413 56.8836Z" fill="#A884FC"/>
<path d="M21.1798 21.3968L15.8936 18.5057L13.0022 13.2193C12.7965 12.8431 12.4019 12.6091 11.973 12.6091C11.5441 12.6091 11.1496 12.8431 10.9438 13.2193L8.05254 18.5057L2.76617 21.3968C2.39 21.6024 2.15601 21.9972 2.15601 22.426C2.15601 22.8547 2.39 23.2493 2.76617 23.4551L8.05254 26.3464L10.9438 31.6326C11.1495 32.0088 11.5441 32.2428 11.973 32.2428C12.4019 32.2428 12.7963 32.0088 13.0022 31.6326L15.8934 26.3464L21.1798 23.4551C21.556 23.2495 21.79 22.8547 21.79 22.426C21.79 21.9972 21.556 21.6026 21.1798 21.3968ZM14.4662 24.453C14.2694 24.5606 14.1075 24.7225 13.9999 24.9193L11.973 28.6253L9.94606 24.9193C9.83844 24.7224 9.67656 24.5606 9.47979 24.453L5.77379 22.4261L9.47979 20.3993C9.67672 20.2917 9.83844 20.1298 9.94606 19.9331L11.973 16.2271L13.9999 19.9331C14.1075 20.13 14.2694 20.2917 14.4662 20.3993L18.1722 22.4261L14.4662 24.453Z" fill="#A884FC"/>
<path d="M25.1815 7.17969C24.5337 7.17969 24.0084 7.70476 24.0084 8.35277V9.47768H22.8835C22.2357 9.47768 21.7104 10.0027 21.7104 10.6508C21.7104 11.2988 22.2357 11.8238 22.8835 11.8238H24.0084V12.9488C24.0084 13.5966 24.5337 14.1218 25.1815 14.1218C25.8294 14.1218 26.3546 13.5968 26.3546 12.9488V11.8238H27.4795C28.1274 11.8238 28.6526 11.2988 28.6526 10.6508C28.6526 10.0027 28.1274 9.47768 27.4795 9.47768H26.3546V8.35277C26.3546 7.70476 25.8294 7.17969 25.1815 7.17969Z" fill="#A884FC"/>
<path d="M62.4995 69.591H61.3746V68.4661C61.3746 67.8182 60.8494 67.293 60.2015 67.293C59.5537 67.293 59.0285 67.818 59.0285 68.4661V69.591H57.9035C57.2557 69.591 56.7305 70.116 56.7305 70.764C56.7305 71.4119 57.2557 71.9371 57.9035 71.9371H59.0285V73.0619C59.0285 73.7097 59.5537 74.235 60.2015 74.235C60.8494 74.235 61.3746 73.7099 61.3746 73.0619V71.9371H62.4995C63.1474 71.9371 63.6726 71.4121 63.6726 70.764C63.6726 70.116 63.1474 69.591 62.4995 69.591Z" fill="#A884FC"/>
<path d="M69.6721 9.07665C70.0761 4.36962 66.0101 -0.0660376 61.2395 0.00153196C58.1873 -0.0577478 55.3996 1.6085 53.7163 4.10591C53.3617 4.64819 53.5138 5.37519 54.056 5.72977C54.598 6.0842 55.3252 5.93232 55.6797 5.38989C56.9482 3.5505 58.9345 2.29436 61.2126 2.34738C65.1265 2.28763 68.2045 6.31991 67.1489 10.0791C67.0508 10.4656 67.1558 10.8754 67.4276 11.1672C67.6993 11.4591 68.1005 11.5921 68.4932 11.5221C72.2627 10.7441 76.028 14.008 75.7943 17.8452C75.7382 19.5396 74.9411 21.0379 73.7499 22.2389C70.7407 25.2733 63.6544 24.5484 59.3171 23.6703C57.7774 21.7036 56.4593 20.3417 54.4273 18.713C54.0983 16.3344 53.8197 13.0511 54.1833 10.1027C54.2626 9.4597 53.8056 8.87426 53.1626 8.79496C52.5188 8.71487 51.9342 9.17269 51.8549 9.81554C51.5564 12.2358 51.6532 14.8288 51.8689 17.0419C51.1873 16.6981 50.5241 16.46 49.9132 16.3785L48.7144 11.1735C48.5691 10.5421 47.9393 10.1476 47.3081 10.2935C46.6769 10.439 46.2829 11.0685 46.4283 11.7L47.5349 16.5049L42.8204 15.0608C42.2005 14.8703 41.5449 15.2194 41.3553 15.8388C41.1656 16.4582 41.5139 17.1141 42.1333 17.3039L47.2421 18.8689C47.28 19.4831 47.4689 20.1601 47.7628 20.8633C42.448 19.953 36.4293 19.9507 33.0826 23.0088C29.4901 26.066 29.0354 31.9413 32.3767 35.339C33.9979 37.0794 36.228 38.0432 38.5563 38.0599C38.4082 40.3836 39.2114 42.6765 40.8326 44.4171C44.0704 47.8947 49.3648 47.9922 52.8819 44.8772C56.3001 41.9535 56.8608 36.0999 56.4185 30.7569C57.6893 31.5848 58.9666 32.1581 60.0375 32.1581C60.6265 32.1581 61.1532 31.9848 61.5819 31.5854C62.79 30.4601 62.2612 28.432 61.1206 26.3762C65.8136 27.1474 72.1958 27.2507 75.4568 23.8494C77.048 22.2363 78.0581 20.1953 78.1391 17.9292C78.4202 13.2596 74.3174 9.00267 69.6721 9.07665ZM51.3967 43.0604C51.37 43.0813 51.3445 43.1031 51.3196 43.1262C48.8155 45.4594 44.8808 45.3207 42.5492 42.8178C41.1065 41.2687 40.557 39.1152 41.0794 37.0572C41.1775 36.6707 41.0725 36.2609 40.8007 35.969C40.5288 35.6773 40.1275 35.5437 39.735 35.6141C37.6451 35.9897 35.536 35.2886 34.091 33.7373C31.6278 31.2271 32.0227 26.9185 34.7019 24.7066C37.8692 21.8313 44.9285 22.6222 49.2495 23.5368C50.7306 25.6797 51.9936 27.0896 53.8471 28.7649C54.4159 33.1533 54.7611 40.4247 51.3967 43.0604ZM55.7636 27.3378C53.4379 25.3745 49.8741 21.2522 49.5708 18.6903C53.0986 19.4157 59.5296 26.4752 59.9324 29.8141C59.3485 29.7734 57.7996 29.0819 55.7636 27.3378Z" fill="#A884FC"/>
</g>
<defs>
<clipPath id="clip0_5_1887">
<rect width="80" height="80" fill="white"/>
</clipPath>
</defs>
</svg>
